<svg xmlns="http://www.w3.org/2000/svg">
    <symbol id="icon" width="102" height="24" viewBox="0 0 102 24" fill="none">
    <path d="M45.9997 7.7643C43.6565 7.7643 41.757 9.6607 41.757 12C41.757 14.3392 43.6565 16.2356 45.9997 16.2356C48.3429 16.2356 50.2425 14.3392 50.2425 12C50.2425 9.6607 48.3429 7.7643 45.9997 7.7643Z" fill="#153416"/>
    <path fill-rule="evenodd" clip-rule="evenodd" d="M39.1718 0.376693C43.6732 -0.125564 48.3268 -0.125564 52.8282 0.376693C55.3065 0.653209 57.3055 2.60263 57.5963 5.08543C58.1346 9.67952 58.1346 14.3205 57.5963 18.9145C57.3055 21.3974 55.3065 23.3469 52.8282 23.6233C48.3268 24.1256 43.6732 24.1256 39.1718 23.6233C36.6935 23.3469 34.6945 21.3974 34.4037 18.9145C33.8654 14.3205 33.8654 9.67952 34.4037 5.08543C34.6945 2.60263 36.6935 0.653209 39.1718 0.376693ZM52.5273 4.18035C51.8063 4.18035 51.2218 4.76385 51.2218 5.48362C51.2218 6.2034 51.8063 6.7869 52.5273 6.7869C53.2483 6.7869 53.8328 6.2034 53.8328 5.48362C53.8328 4.76385 53.2483 4.18035 52.5273 4.18035ZM39.799 12C39.799 8.58106 42.5753 5.80944 46 5.80944C49.4247 5.80944 52.2009 8.58106 52.2009 12C52.2009 15.419 49.4247 18.1906 46 18.1906C42.5753 18.1906 39.799 15.419 39.799 12Z" fill="#153416"/>
    <path d="M80.72 0C79.2178 0 78 1.18615 78 2.64935C78 4.11254 79.2178 5.2987 80.72 5.2987C82.2222 5.2987 83.44 4.11254 83.44 2.64935C83.44 1.18615 82.2222 0 80.72 0Z" fill="#153416"/>
    <path d="M78.16 7.48052C78.0716 7.48052 78 7.55029 78 7.63636V23.8442C78 23.9302 78.0716 24 78.16 24H83.28C83.3684 24 83.44 23.9302 83.44 23.8442V7.63636C83.44 7.55029 83.3684 7.48052 83.28 7.48052H78.16Z" fill="#153416"/>
    <path d="M86.48 7.48052C86.3916 7.48052 86.32 7.55029 86.32 7.63636V23.8442C86.32 23.9302 86.3916 24 86.48 24H91.6C91.6883 24 91.76 23.9302 91.76 23.8442V15.1169C91.76 14.4969 92.0128 13.9023 92.463 13.4639C92.913 13.0255 93.5235 12.7792 94.16 12.7792C94.7965 12.7792 95.407 13.0255 95.857 13.4639C96.3072 13.9023 96.56 14.4969 96.56 15.1169V23.8442C96.56 23.9302 96.6317 24 96.72 24H101.84C101.928 24 102 23.9302 102 23.8442V13.0974C102 10.0719 99.2984 7.70492 96.2077 7.9786C95.2547 8.06299 94.3123 8.29379 93.4323 8.66112L91.76 9.3592V7.63636C91.76 7.55029 91.6883 7.48052 91.6 7.48052H86.48Z" fill="#153416"/>
    <path d="M10.1034 0C8.41159 0 6.78897 0.640807 5.59255 1.78143C4.39628 2.92207 3.72414 4.46909 3.72414 6.08219V9.46849H0.310345C0.138952 9.46849 0 9.60092 0 9.76438V14.2356C0 14.3991 0.138952 14.5315 0.310345 14.5315H3.72414V23.7041C3.72414 23.8676 3.86309 24 4.03448 24H8.72414C8.89559 24 9.03448 23.8676 9.03448 23.7041V14.5315H12.4785C12.621 14.5315 12.7451 14.4391 12.7796 14.3074L13.952 9.83619C14.001 9.64945 13.8528 9.46849 13.6509 9.46849H9.03448V6.08219C9.03448 5.81189 9.14717 5.55265 9.34759 5.36152C9.548 5.17039 9.82 5.06301 10.1034 5.06301H13.6897C13.8611 5.06301 14 4.93053 14 4.76712V0.29589C14 0.13248 13.8611 0 13.6897 0H10.1034Z" fill="#153416"/>
    <symbol>
</svg>